<?xml version="1.0" encoding="UTF-8"?>
<svg xmlns="http://www.w3.org/2000/svg" xmlns:xlink="http://www.w3.org/1999/xlink" width="2835" height="2835" viewBox="0 0 2835 2835">
<path fill-rule="evenodd" fill="rgb(100%, 100%, 100%)" fill-opacity="1" d="M -0.117188 0.46875 L 2834.53125 0.46875 L 2834.53125 2835.117188 L -0.117188 2835.117188 L -0.117188 0.46875 "/>
<path fill-rule="evenodd" fill="rgb(0%, 0%, 0%)" fill-opacity="1" d="M 1774.371094 1528.429688 C 1821.941406 1529.769531 1848.511719 1579.351562 1877.578125 1606.621094 L 2018.421875 1606.621094 C 2052.289062 1606.621094 2053.019531 1610.238281 2053.101562 1596.171875 C 2053.390625 1543.460938 2058.988281 1460.558594 2048.800781 1413.550781 C 2043.359375 1388.460938 2031.039062 1368.761719 2019.75 1348.628906 C 1990.78125 1296.941406 1948.148438 1211.679688 1911.5 1173.359375 C 1889.851562 1150.730469 1865.78125 1141.289062 1836.171875 1137.179688 C 1792.699219 1131.148438 1720.820312 1131.21875 1676.550781 1133.109375 C 1640.730469 1134.640625 1606.960938 1139.890625 1596.019531 1154.828125 C 1594.75 1156.578125 1593.789062 1159.679688 1593.101562 1163.710938 L 1593.089844 1163.710938 L 1593.089844 1528.308594 C 1653.058594 1528.308594 1714.75 1526.761719 1774.371094 1528.429688 Z M 1620.390625 1686.300781 C 1629.140625 1540.671875 1771.890625 1529.851562 1835.640625 1583.75 C 1820.640625 1565.148438 1771.910156 1546.828125 1738.628906 1546.828125 C 1424.140625 1547.109375 1109.648438 1546.921875 795.152344 1546.921875 C 778.769531 1546.921875 765.363281 1560.328125 765.363281 1576.710938 L 765.363281 1656.511719 C 765.363281 1672.898438 778.769531 1686.300781 795.152344 1686.300781 C 1070.25 1686.300781 1345.289062 1686.878906 1620.390625 1686.300781 "/>
<path fill-rule="evenodd" fill="rgb(100%, 100%, 100%)" fill-opacity="1" d="M 942.304688 1546.929688 C 1013.769531 1546.929688 1071.710938 1604.871094 1071.710938 1676.328125 C 1071.710938 1747.800781 1013.769531 1805.738281 942.304688 1805.738281 C 870.835938 1805.738281 812.898438 1747.800781 812.898438 1676.328125 C 812.898438 1604.871094 870.835938 1546.929688 942.304688 1546.929688 "/>
<path fill-rule="evenodd" fill="rgb(0%, 0%, 0%)" fill-opacity="1" d="M 942.304688 1571.820312 C 1000.019531 1571.820312 1046.808594 1618.609375 1046.808594 1676.328125 C 1046.808594 1734.050781 1000.019531 1780.839844 942.304688 1780.839844 C 884.585938 1780.839844 837.792969 1734.050781 837.792969 1676.328125 C 837.792969 1618.609375 884.585938 1571.820312 942.304688 1571.820312 "/>
<path fill-rule="evenodd" fill="rgb(100%, 100%, 100%)" fill-opacity="1" d="M 1750.328125 1546.929688 C 1821.789062 1546.929688 1879.730469 1604.871094 1879.730469 1676.328125 C 1879.730469 1747.800781 1821.789062 1805.738281 1750.328125 1805.738281 C 1678.859375 1805.738281 1620.921875 1747.800781 1620.921875 1676.328125 C 1620.921875 1604.871094 1678.859375 1546.929688 1750.328125 1546.929688 "/>
<path fill-rule="evenodd" fill="rgb(0%, 0%, 0%)" fill-opacity="1" d="M 1750.328125 1571.820312 C 1808.050781 1571.820312 1854.839844 1618.609375 1854.839844 1676.328125 C 1854.839844 1734.050781 1808.050781 1780.839844 1750.328125 1780.839844 C 1692.609375 1780.839844 1645.820312 1734.050781 1645.820312 1676.328125 C 1645.820312 1618.609375 1692.609375 1571.820312 1750.328125 1571.820312 "/>
<path fill-rule="evenodd" fill="rgb(0%, 0%, 0%)" fill-opacity="1" d="M 1890.171875 1620.121094 L 2056.679688 1620.121094 C 2063.480469 1620.121094 2069.050781 1625.691406 2069.050781 1632.488281 L 2069.050781 1665.789062 C 2069.050781 1672.601562 2063.480469 1678.160156 2056.679688 1678.160156 L 1890.171875 1678.160156 C 1883.371094 1678.160156 1877.800781 1672.601562 1877.800781 1665.789062 L 1877.800781 1632.488281 C 1877.800781 1625.691406 1883.371094 1620.121094 1890.171875 1620.121094 "/>
<path fill-rule="evenodd" fill="rgb(0%, 0%, 0%)" fill-opacity="1" d="M 797.175781 1029.851562 L 1534.828125 1029.851562 C 1551.96875 1029.851562 1566 1043.878906 1566 1061.019531 L 1566 1497.410156 C 1566 1514.550781 1551.96875 1528.578125 1534.828125 1528.578125 L 797.175781 1528.578125 C 780.03125 1528.578125 766.003906 1514.550781 766.003906 1497.410156 L 766.003906 1061.019531 C 766.003906 1043.878906 780.03125 1029.851562 797.175781 1029.851562 "/>
<path fill="none" stroke-width="5.0003" stroke-linecap="butt" stroke-linejoin="miter" stroke="rgb(0%, 0%, 0%)" stroke-opacity="1" stroke-miterlimit="2.61313" d="M 7971.757812 18051.484375 L 15348.28125 18051.484375 C 15519.6875 18051.484375 15660 17911.210938 15660 17739.804688 L 15660 13375.898438 C 15660 13204.492188 15519.6875 13064.21875 15348.28125 13064.21875 L 7971.757812 13064.21875 C 7800.3125 13064.21875 7660.039062 13204.492188 7660.039062 13375.898438 L 7660.039062 17739.804688 C 7660.039062 17911.210938 7800.3125 18051.484375 7971.757812 18051.484375 Z M 7971.757812 18051.484375 " transform="matrix(0.1, 0, 0, -0.1, 0, 2835)"/>
<path fill-rule="evenodd" fill="rgb(100%, 100%, 100%)" fill-opacity="1" d="M 942.304688 1612.171875 C 977.738281 1612.171875 1006.46875 1640.898438 1006.46875 1676.328125 C 1006.46875 1711.769531 977.738281 1740.5 942.304688 1740.5 C 906.867188 1740.5 878.140625 1711.769531 878.140625 1676.328125 C 878.140625 1640.898438 906.867188 1612.171875 942.304688 1612.171875 "/>
<path fill-rule="evenodd" fill="rgb(0%, 0%, 0%)" fill-opacity="1" d="M 942.304688 1622.339844 C 945.582031 1622.339844 948.242188 1625 948.242188 1628.28125 C 948.242188 1631.558594 945.582031 1634.21875 942.304688 1634.21875 C 939.023438 1634.21875 936.363281 1631.558594 936.363281 1628.28125 C 936.363281 1625 939.023438 1622.339844 942.304688 1622.339844 "/>
<path fill-rule="evenodd" fill="rgb(0%, 0%, 0%)" fill-opacity="1" d="M 969.296875 1629.578125 C 972.140625 1631.21875 973.113281 1634.851562 971.472656 1637.691406 C 969.832031 1640.53125 966.199219 1641.5 963.359375 1639.859375 C 960.519531 1638.21875 959.546875 1634.589844 961.183594 1631.75 C 962.824219 1628.910156 966.457031 1627.941406 969.296875 1629.578125 "/>
<path fill-rule="evenodd" fill="rgb(0%, 0%, 0%)" fill-opacity="1" d="M 989.0625 1649.339844 C 990.699219 1652.179688 989.726562 1655.808594 986.886719 1657.449219 C 984.046875 1659.089844 980.414062 1658.121094 978.773438 1655.28125 C 977.132812 1652.441406 978.105469 1648.800781 980.945312 1647.160156 C 983.789062 1645.519531 987.421875 1646.5 989.0625 1649.339844 "/>
<path fill-rule="evenodd" fill="rgb(0%, 0%, 0%)" fill-opacity="1" d="M 996.292969 1676.328125 C 996.292969 1679.609375 993.636719 1682.269531 990.355469 1682.269531 C 987.074219 1682.269531 984.414062 1679.609375 984.414062 1676.328125 C 984.414062 1673.050781 987.074219 1670.390625 990.355469 1670.390625 C 993.636719 1670.390625 996.292969 1673.050781 996.292969 1676.328125 "/>
<path fill-rule="evenodd" fill="rgb(0%, 0%, 0%)" fill-opacity="1" d="M 989.0625 1703.328125 C 987.421875 1706.171875 983.789062 1707.140625 980.945312 1705.5 C 978.105469 1703.859375 977.132812 1700.230469 978.773438 1697.390625 C 980.414062 1694.550781 984.046875 1693.578125 986.886719 1695.21875 C 989.726562 1696.859375 990.699219 1700.488281 989.0625 1703.328125 "/>
<path fill-rule="evenodd" fill="rgb(0%, 0%, 0%)" fill-opacity="1" d="M 969.296875 1723.089844 C 966.457031 1724.730469 962.824219 1723.761719 961.183594 1720.921875 C 959.546875 1718.078125 960.519531 1714.441406 963.359375 1712.800781 C 966.199219 1711.160156 969.832031 1712.140625 971.472656 1714.980469 C 973.113281 1717.820312 972.140625 1721.449219 969.296875 1723.089844 "/>
<path fill-rule="evenodd" fill="rgb(0%, 0%, 0%)" fill-opacity="1" d="M 942.304688 1730.320312 C 939.023438 1730.320312 936.363281 1727.671875 936.363281 1724.390625 C 936.363281 1721.109375 939.023438 1718.449219 942.304688 1718.449219 C 945.582031 1718.449219 948.242188 1721.109375 948.242188 1724.390625 C 948.242188 1727.671875 945.582031 1730.320312 942.304688 1730.320312 "/>
<path fill-rule="evenodd" fill="rgb(0%, 0%, 0%)" fill-opacity="1" d="M 915.308594 1723.089844 C 912.46875 1721.449219 911.492188 1717.820312 913.132812 1714.980469 C 914.773438 1712.140625 918.40625 1711.160156 921.246094 1712.800781 C 924.089844 1714.441406 925.0625 1718.078125 923.421875 1720.921875 C 921.78125 1723.761719 918.148438 1724.730469 915.308594 1723.089844 "/>
<path fill-rule="evenodd" fill="rgb(0%, 0%, 0%)" fill-opacity="1" d="M 895.546875 1703.328125 C 893.90625 1700.488281 894.878906 1696.859375 897.71875 1695.21875 C 900.558594 1693.578125 904.191406 1694.550781 905.832031 1697.390625 C 907.472656 1700.230469 906.5 1703.859375 903.660156 1705.5 C 900.816406 1707.140625 897.1875 1706.171875 895.546875 1703.328125 "/>
<path fill-rule="evenodd" fill="rgb(0%, 0%, 0%)" fill-opacity="1" d="M 888.3125 1676.328125 C 888.3125 1673.050781 890.972656 1670.390625 894.25 1670.390625 C 897.53125 1670.390625 900.191406 1673.050781 900.191406 1676.328125 C 900.191406 1679.609375 897.53125 1682.269531 894.25 1682.269531 C 890.972656 1682.269531 888.3125 1679.609375 888.3125 1676.328125 "/>
<path fill-rule="evenodd" fill="rgb(0%, 0%, 0%)" fill-opacity="1" d="M 895.546875 1649.339844 C 897.1875 1646.5 900.816406 1645.519531 903.660156 1647.160156 C 906.5 1648.800781 907.472656 1652.441406 905.832031 1655.28125 C 904.191406 1658.121094 900.558594 1659.089844 897.71875 1657.449219 C 894.878906 1655.808594 893.90625 1652.179688 895.546875 1649.339844 "/>
<path fill-rule="evenodd" fill="rgb(0%, 0%, 0%)" fill-opacity="1" d="M 915.308594 1629.578125 C 918.148438 1627.941406 921.78125 1628.910156 923.421875 1631.75 C 925.0625 1634.589844 924.089844 1638.21875 921.246094 1639.859375 C 918.40625 1641.5 914.773438 1640.53125 913.132812 1637.691406 C 911.492188 1634.851562 912.46875 1631.21875 915.308594 1629.578125 "/>
<path fill-rule="evenodd" fill="rgb(0%, 0%, 0%)" fill-opacity="1" d="M 942.304688 1661.921875 C 950.265625 1661.921875 956.722656 1668.371094 956.722656 1676.328125 C 956.722656 1684.300781 950.265625 1690.75 942.304688 1690.75 C 934.339844 1690.75 927.882812 1684.300781 927.882812 1676.328125 C 927.882812 1668.371094 934.339844 1661.921875 942.304688 1661.921875 "/>
<path fill-rule="evenodd" fill="rgb(100%, 100%, 100%)" fill-opacity="1" d="M 1750.328125 1612.171875 C 1785.761719 1612.171875 1814.488281 1640.898438 1814.488281 1676.328125 C 1814.488281 1711.769531 1785.761719 1740.5 1750.328125 1740.5 C 1714.890625 1740.5 1686.160156 1711.769531 1686.160156 1676.328125 C 1686.160156 1640.898438 1714.890625 1612.171875 1750.328125 1612.171875 "/>
<path fill-rule="evenodd" fill="rgb(0%, 0%, 0%)" fill-opacity="1" d="M 1750.328125 1622.339844 C 1753.609375 1622.339844 1756.269531 1625 1756.269531 1628.28125 C 1756.269531 1631.558594 1753.609375 1634.21875 1750.328125 1634.21875 C 1747.050781 1634.21875 1744.390625 1631.558594 1744.390625 1628.28125 C 1744.390625 1625 1747.050781 1622.339844 1750.328125 1622.339844 "/>
<path fill-rule="evenodd" fill="rgb(0%, 0%, 0%)" fill-opacity="1" d="M 1777.320312 1629.578125 C 1780.160156 1631.21875 1781.140625 1634.851562 1779.5 1637.691406 C 1777.859375 1640.53125 1774.21875 1641.5 1771.378906 1639.859375 C 1768.539062 1638.21875 1767.570312 1634.589844 1769.210938 1631.75 C 1770.851562 1628.910156 1774.480469 1627.941406 1777.320312 1629.578125 "/>
<path fill-rule="evenodd" fill="rgb(0%, 0%, 0%)" fill-opacity="1" d="M 1797.078125 1649.339844 C 1798.71875 1652.179688 1797.75 1655.808594 1794.910156 1657.449219 C 1792.070312 1659.089844 1788.441406 1658.121094 1786.800781 1655.28125 C 1785.160156 1652.441406 1786.128906 1648.800781 1788.96875 1647.160156 C 1791.808594 1645.519531 1795.441406 1646.5 1797.078125 1649.339844 "/>
<path fill-rule="evenodd" fill="rgb(0%, 0%, 0%)" fill-opacity="1" d="M 1804.320312 1676.328125 C 1804.320312 1679.609375 1801.660156 1682.269531 1798.378906 1682.269531 C 1795.101562 1682.269531 1792.441406 1679.609375 1792.441406 1676.328125 C 1792.441406 1673.050781 1795.101562 1670.390625 1798.378906 1670.390625 C 1801.660156 1670.390625 1804.320312 1673.050781 1804.320312 1676.328125 "/>
<path fill-rule="evenodd" fill="rgb(0%, 0%, 0%)" fill-opacity="1" d="M 1797.078125 1703.328125 C 1795.441406 1706.171875 1791.808594 1707.140625 1788.96875 1705.5 C 1786.128906 1703.859375 1785.160156 1700.230469 1786.800781 1697.390625 C 1788.441406 1694.550781 1792.070312 1693.578125 1794.910156 1695.21875 C 1797.75 1696.859375 1798.71875 1700.488281 1797.078125 1703.328125 "/>
<path fill-rule="evenodd" fill="rgb(0%, 0%, 0%)" fill-opacity="1" d="M 1777.320312 1723.089844 C 1774.480469 1724.730469 1770.851562 1723.761719 1769.210938 1720.921875 C 1767.570312 1718.078125 1768.539062 1714.441406 1771.378906 1712.800781 C 1774.21875 1711.160156 1777.859375 1712.140625 1779.5 1714.980469 C 1781.140625 1717.820312 1780.160156 1721.449219 1777.320312 1723.089844 "/>
<path fill-rule="evenodd" fill="rgb(0%, 0%, 0%)" fill-opacity="1" d="M 1750.328125 1730.320312 C 1747.050781 1730.320312 1744.390625 1727.671875 1744.390625 1724.390625 C 1744.390625 1721.109375 1747.050781 1718.449219 1750.328125 1718.449219 C 1753.609375 1718.449219 1756.269531 1721.109375 1756.269531 1724.390625 C 1756.269531 1727.671875 1753.609375 1730.320312 1750.328125 1730.320312 "/>
<path fill-rule="evenodd" fill="rgb(0%, 0%, 0%)" fill-opacity="1" d="M 1723.328125 1723.089844 C 1720.488281 1721.449219 1719.519531 1717.820312 1721.160156 1714.980469 C 1722.800781 1712.140625 1726.429688 1711.160156 1729.269531 1712.800781 C 1732.109375 1714.441406 1733.078125 1718.078125 1731.441406 1720.921875 C 1729.800781 1723.761719 1726.171875 1724.730469 1723.328125 1723.089844 "/>
<path fill-rule="evenodd" fill="rgb(0%, 0%, 0%)" fill-opacity="1" d="M 1703.570312 1703.328125 C 1701.929688 1700.488281 1702.898438 1696.859375 1705.738281 1695.21875 C 1708.578125 1693.578125 1712.21875 1694.550781 1713.859375 1697.390625 C 1715.5 1700.230469 1714.519531 1703.859375 1711.679688 1705.5 C 1708.839844 1707.140625 1705.210938 1706.171875 1703.570312 1703.328125 "/>
<path fill-rule="evenodd" fill="rgb(0%, 0%, 0%)" fill-opacity="1" d="M 1696.339844 1676.328125 C 1696.339844 1673.050781 1698.988281 1670.390625 1702.269531 1670.390625 C 1705.550781 1670.390625 1708.210938 1673.050781 1708.210938 1676.328125 C 1708.210938 1679.609375 1705.550781 1682.269531 1702.269531 1682.269531 C 1698.988281 1682.269531 1696.339844 1679.609375 1696.339844 1676.328125 "/>
<path fill-rule="evenodd" fill="rgb(0%, 0%, 0%)" fill-opacity="1" d="M 1703.570312 1649.339844 C 1705.210938 1646.5 1708.839844 1645.519531 1711.679688 1647.160156 C 1714.519531 1648.800781 1715.5 1652.441406 1713.859375 1655.28125 C 1712.21875 1658.121094 1708.578125 1659.089844 1705.738281 1657.449219 C 1702.898438 1655.808594 1701.929688 1652.179688 1703.570312 1649.339844 "/>
<path fill-rule="evenodd" fill="rgb(0%, 0%, 0%)" fill-opacity="1" d="M 1723.328125 1629.578125 C 1726.171875 1627.941406 1729.800781 1628.910156 1731.441406 1631.75 C 1733.078125 1634.589844 1732.109375 1638.21875 1729.269531 1639.859375 C 1726.429688 1641.5 1722.800781 1640.53125 1721.160156 1637.691406 C 1719.519531 1634.851562 1720.488281 1631.21875 1723.328125 1629.578125 "/>
<path fill-rule="evenodd" fill="rgb(0%, 0%, 0%)" fill-opacity="1" d="M 1750.328125 1661.921875 C 1758.289062 1661.921875 1764.738281 1668.371094 1764.738281 1676.328125 C 1764.738281 1684.300781 1758.289062 1690.75 1750.328125 1690.75 C 1742.359375 1690.75 1735.910156 1684.300781 1735.910156 1676.328125 C 1735.910156 1668.371094 1742.359375 1661.921875 1750.328125 1661.921875 "/>
<path fill-rule="evenodd" fill="rgb(100%, 100%, 100%)" fill-opacity="1" d="M 1642.378906 1180.320312 L 1846.46875 1180.320312 C 1888.339844 1180.320312 1947.410156 1321.871094 1980.808594 1362.109375 L 1624.089844 1362.109375 L 1624.089844 1198.609375 C 1624.089844 1188.550781 1632.320312 1180.320312 1642.378906 1180.320312 "/>
<path fill="none" stroke-width="5.0003" stroke-linecap="butt" stroke-linejoin="miter" stroke="rgb(0%, 0%, 0%)" stroke-opacity="1" stroke-miterlimit="2.61313" d="M 16423.789062 16546.796875 L 18464.6875 16546.796875 C 18883.398438 16546.796875 19474.101562 15131.289062 19808.085938 14728.90625 L 16240.898438 14728.90625 L 16240.898438 16363.90625 C 16240.898438 16464.492188 16323.203125 16546.796875 16423.789062 16546.796875 Z M 16423.789062 16546.796875 " transform="matrix(0.1, 0, 0, -0.1, 0, 2835)"/>
</svg>
